<svg id="visual" viewBox="0 0 960 540" width="960" height="540" xmlns="http://www.w3.org/2000/svg" xmlns:xlink="http://www.w3.org/1999/xlink" version="1.1"><g stroke-width="1" stroke-linejoin="bevel"><path d="M476 297L377 313L441 456Z" fill="#cbcbcb" stroke="#cbcbcb"></path><path d="M377 313L385 452L441 456Z" fill="#e5e5e5" stroke="#e5e5e5"></path><path d="M441 456L562 358L476 297Z" fill="#cbcbcb" stroke="#cbcbcb"></path><path d="M441 456L586 449L562 358Z" fill="#d4d4d4" stroke="#d4d4d4"></path><path d="M377 313L278 445L385 452Z" fill="#c3c3c3" stroke="#c3c3c3"></path><path d="M336 540L516 540L441 456Z" fill="#f6f6f6" stroke="#f6f6f6"></path><path d="M336 540L441 456L385 452Z" fill="#eeeeee" stroke="#eeeeee"></path><path d="M441 456L516 540L586 449Z" fill="#dcdcdc" stroke="#dcdcdc"></path><path d="M476 297L328 211L377 313Z" fill="#eeeeee" stroke="#eeeeee"></path><path d="M377 313L241 303L278 445Z" fill="#f6f6f6" stroke="#f6f6f6"></path><path d="M278 445L336 540L385 452Z" fill="#ffffff" stroke="#ffffff"></path><path d="M570 224L517 190L476 297Z" fill="#f6f6f6" stroke="#f6f6f6"></path><path d="M476 297L517 190L328 211Z" fill="#bbbbbb" stroke="#bbbbbb"></path><path d="M562 358L570 224L476 297Z" fill="#dcdcdc" stroke="#dcdcdc"></path><path d="M700 362L570 224L562 358Z" fill="#dcdcdc" stroke="#dcdcdc"></path><path d="M328 211L241 303L377 313Z" fill="#bbbbbb" stroke="#bbbbbb"></path><path d="M516 540L564 540L586 449Z" fill="#cbcbcb" stroke="#cbcbcb"></path><path d="M695 449L700 362L586 449Z" fill="#cbcbcb" stroke="#cbcbcb"></path><path d="M586 449L700 362L562 358Z" fill="#e5e5e5" stroke="#e5e5e5"></path><path d="M564 540L695 449L586 449Z" fill="#aaaaaa" stroke="#aaaaaa"></path><path d="M729 97L563 126L570 224Z" fill="#aaaaaa" stroke="#aaaaaa"></path><path d="M570 224L563 126L517 190Z" fill="#d4d4d4" stroke="#d4d4d4"></path><path d="M517 190L398 98L328 211Z" fill="#aaaaaa" stroke="#aaaaaa"></path><path d="M500 85L398 98L517 190Z" fill="#eeeeee" stroke="#eeeeee"></path><path d="M115 222L156 361L241 303Z" fill="#d4d4d4" stroke="#d4d4d4"></path><path d="M221 189L241 303L328 211Z" fill="#bbbbbb" stroke="#bbbbbb"></path><path d="M241 303L156 361L278 445Z" fill="#eeeeee" stroke="#eeeeee"></path><path d="M278 445L209 540L336 540Z" fill="#eeeeee" stroke="#eeeeee"></path><path d="M204 137L221 189L328 211Z" fill="#f6f6f6" stroke="#f6f6f6"></path><path d="M112 419L209 540L278 445Z" fill="#ffffff" stroke="#ffffff"></path><path d="M563 126L500 85L517 190Z" fill="#ffffff" stroke="#ffffff"></path><path d="M819 327L733 241L700 362Z" fill="#f6f6f6" stroke="#f6f6f6"></path><path d="M700 362L733 241L570 224Z" fill="#c3c3c3" stroke="#c3c3c3"></path><path d="M156 361L112 419L278 445Z" fill="#bbbbbb" stroke="#bbbbbb"></path><path d="M0 414L112 419L0 318Z" fill="#eeeeee" stroke="#eeeeee"></path><path d="M398 98L204 137L328 211Z" fill="#e5e5e5" stroke="#e5e5e5"></path><path d="M221 189L115 222L241 303Z" fill="#cbcbcb" stroke="#cbcbcb"></path><path d="M204 137L115 222L221 189Z" fill="#e5e5e5" stroke="#e5e5e5"></path><path d="M112 419L118 540L209 540Z" fill="#d4d4d4" stroke="#d4d4d4"></path><path d="M564 540L758 540L695 449Z" fill="#e5e5e5" stroke="#e5e5e5"></path><path d="M830 420L819 327L700 362Z" fill="#e5e5e5" stroke="#e5e5e5"></path><path d="M575 0L500 85L563 126Z" fill="#eeeeee" stroke="#eeeeee"></path><path d="M575 0L498 0L500 85Z" fill="#f6f6f6" stroke="#f6f6f6"></path><path d="M500 85L498 0L398 98Z" fill="#dcdcdc" stroke="#dcdcdc"></path><path d="M398 98L270 0L204 137Z" fill="#bbbbbb" stroke="#bbbbbb"></path><path d="M498 0L368 0L398 98Z" fill="#bbbbbb" stroke="#bbbbbb"></path><path d="M830 420L700 362L695 449Z" fill="#dcdcdc" stroke="#dcdcdc"></path><path d="M729 97L575 0L563 126Z" fill="#ffffff" stroke="#ffffff"></path><path d="M758 540L830 420L695 449Z" fill="#b2b2b2" stroke="#b2b2b2"></path><path d="M729 97L570 224L733 241Z" fill="#c3c3c3" stroke="#c3c3c3"></path><path d="M815 113L729 97L733 241Z" fill="#e5e5e5" stroke="#e5e5e5"></path><path d="M368 0L270 0L398 98Z" fill="#dcdcdc" stroke="#dcdcdc"></path><path d="M204 137L114 84L115 222Z" fill="#d4d4d4" stroke="#d4d4d4"></path><path d="M758 540L812 540L830 420Z" fill="#b2b2b2" stroke="#b2b2b2"></path><path d="M270 0L114 84L204 137Z" fill="#e5e5e5" stroke="#e5e5e5"></path><path d="M0 318L112 419L156 361Z" fill="#b2b2b2" stroke="#b2b2b2"></path><path d="M0 318L156 361L115 222Z" fill="#c3c3c3" stroke="#c3c3c3"></path><path d="M112 419L0 540L118 540Z" fill="#f6f6f6" stroke="#f6f6f6"></path><path d="M0 199L0 318L115 222Z" fill="#cbcbcb" stroke="#cbcbcb"></path><path d="M960 299L873 254L819 327Z" fill="#aaaaaa" stroke="#aaaaaa"></path><path d="M819 327L873 254L733 241Z" fill="#b2b2b2" stroke="#b2b2b2"></path><path d="M960 420L819 327L830 420Z" fill="#cbcbcb" stroke="#cbcbcb"></path><path d="M873 254L815 113L733 241Z" fill="#eeeeee" stroke="#eeeeee"></path><path d="M729 97L715 0L575 0Z" fill="#eeeeee" stroke="#eeeeee"></path><path d="M815 113L715 0L729 97Z" fill="#f6f6f6" stroke="#f6f6f6"></path><path d="M0 414L0 540L112 419Z" fill="#f6f6f6" stroke="#f6f6f6"></path><path d="M114 84L0 199L115 222Z" fill="#dcdcdc" stroke="#dcdcdc"></path><path d="M270 0L86 0L114 84Z" fill="#c3c3c3" stroke="#c3c3c3"></path><path d="M114 84L0 77L0 199Z" fill="#b2b2b2" stroke="#b2b2b2"></path><path d="M960 540L960 420L830 420Z" fill="#dcdcdc" stroke="#dcdcdc"></path><path d="M873 254L960 144L815 113Z" fill="#f6f6f6" stroke="#f6f6f6"></path><path d="M86 0L0 77L114 84Z" fill="#aaaaaa" stroke="#aaaaaa"></path><path d="M960 420L960 299L819 327Z" fill="#dcdcdc" stroke="#dcdcdc"></path><path d="M960 299L960 250L873 254Z" fill="#b2b2b2" stroke="#b2b2b2"></path><path d="M815 113L859 0L715 0Z" fill="#c3c3c3" stroke="#c3c3c3"></path><path d="M812 540L960 540L830 420Z" fill="#b2b2b2" stroke="#b2b2b2"></path><path d="M960 144L859 0L815 113Z" fill="#eeeeee" stroke="#eeeeee"></path><path d="M960 250L960 144L873 254Z" fill="#aaaaaa" stroke="#aaaaaa"></path><path d="M86 0L0 0L0 77Z" fill="#cbcbcb" stroke="#cbcbcb"></path><path d="M960 144L960 0L859 0Z" fill="#f6f6f6" stroke="#f6f6f6"></path></g></svg>